<?xml version="1.0" encoding="utf-8"?><svg width="38" height="38" viewBox="0 0 38 38" xmlns="http://www.w3.org/2000/svg" xmlns:xlink="http://www.w3.org/1999/xlink"><svg width="20" height="20" viewBox="0 0 20 20" id="access-time" xmlns="http://www.w3.org/2000/svg"><g fill="#7D7D7D" fill-rule="evenodd"><path d="M10 0C4.5 0 0 4.5 0 10s4.5 10 10 10 10-4.5 10-10S15.5 0 10 0zm0 18c-4.4 0-8-3.6-8-8s3.6-8 8-8 8 3.6 8 8-3.6 8-8 8z"/><path d="M10.5 5H9v6l5.2 3.2.8-1.3-4.5-2.7z"/></g></svg><svg width="18" height="18" viewBox="0 0 18 18" id="archive-2" x="20" xmlns="http://www.w3.org/2000/svg"><path d="M17.5 2.2L16.1.5C15.9.2 15.5 0 15 0H3c-.5 0-.9.2-1.2.5L.5 2.2C.2 2.6 0 3 0 3.5V16c0 1.1.9 2 2 2h14c1.1 0 2-.9 2-2V3.5c0-.5-.2-.9-.5-1.3zM9 14.5L3.5 9H7V7h4v2h3.5L9 14.5zM2.1 2l.8-1h12l.9 1H2.1z" fill="#7D7D7D" fill-rule="evenodd"/></svg><svg width="14" height="18" viewBox="0 0 14 18" id="delete-3" y="20" xmlns="http://www.w3.org/2000/svg"><path d="M1 16c0 1.1.9 2 2 2h8c1.1 0 2-.9 2-2V4H1v12zM14 1h-3.5l-1-1h-5l-1 1H0v2h14V1z" fill="#7D7D7D" fill-rule="evenodd"/></svg><svg width="18" height="14" viewBox="0 0 18 14" id="done-2" x="14" y="20" xmlns="http://www.w3.org/2000/svg"><path d="M6 11.2L1.8 7 .4 8.4 6 14 18 2 16.6.6z" fill="#7D7D7D" fill-rule="evenodd"/></svg></svg>